{
  "streams": [
    {
      "index": 0,
      "codec_name": "hevc",
      "codec_long_name": "H.265 / HEVC (High Efficiency Video Coding)",
      "profile": "Main 10",
      "codec_type": "video",
      "codec_time_base": "1001/24000",
      "codec_tag_string": "[0][0][0][0]",
      "codec_tag": "0x0000",
      "width": 3840,
      "height": 2160,
      "coded_width": 3840,
      "coded_height": 2160,
      "has_b_frames": 3,
      "sample_aspect_ratio": "1:1",
      "display_aspect_ratio": "16:9",
      "pix_fmt": "yuv420p10le",
      "level": 153,
      "color_range": "tv",
      "color_space": "bt2020nc",
      "color_transfer": "smpte2084",
      "color_primaries": "bt2020",
      "refs": 1,
      "r_frame_rate": "24000/1001",
      "avg_frame_rate": "24000/1001",
      "time_base": "1/1000",
      "start_pts": 0,
      "start_time": "0.000000",
      "disposition": {
        "default": 1,
        "dub": 0,
        "original": 0,
        "comment": 0,
        "lyrics": 0,
        "karaoke": 0,
        "forced": 0,
        "hearing_impaired": 0,
        "visual_impaired": 0,
        "clean_effects": 0,
        "attached_pic": 0,
        "timed_thumbnails": 0
      },
      "tags": {
        "BPS": "49972636",
        "BPS-eng": "49972636",
        "DURATION": "02:06:12.524000000",
        "DURATION-eng": "02:06:12.524000000",
        "NUMBER_OF_FRAMES": "181559",
        "NUMBER_OF_FRAMES-eng": "181559",
        "NUMBER_OF_BYTES": "47302373739",
        "NUMBER_OF_BYTES-eng": "47302373739",
        "_STATISTICS_WRITING_APP": "mkvmerge v13.0.0 ('The Juggler') 64bit",
        "_STATISTICS_WRITING_APP-eng": "mkvmerge v13.0.0 ('The Juggler') 64bit",
        "_STATISTICS_WRITING_DATE_UTC": "2017-11-29 19:49:33",
        "_STATISTICS_WRITING_DATE_UTC-eng": "2017-11-29 19:49:33",
        "_STATISTICS_TAGS": "BPS DURATION NUMBER_OF_FRAMES NUMBER_OF_BYTES",
        "_STATISTICS_TAGS-eng": "BPS DURATION NUMBER_OF_FRAMES NUMBER_OF_BYTES"
      }
    },
    {
      "index": 1,
      "codec_name": "ac3",
      "codec_long_name": "ATSC A/52A (AC-3)",
      "codec_type": "audio",
      "codec_time_base": "1/48000",
      "codec_tag_string": "[0][0][0][0]",
      "codec_tag": "0x0000",
      "sample_fmt": "fltp",
      "sample_rate": "48000",
      "channels": 6,
      "channel_layout": "5.1(side)",
      "bits_per_sample": 0,
      "dmix_mode": "-1",
      "ltrt_cmixlev": "-1.000000",
      "ltrt_surmixlev": "-1.000000",
      "loro_cmixlev": "-1.000000",
      "loro_surmixlev": "-1.000000",
      "r_frame_rate": "0/0",
      "avg_frame_rate": "0/0",
      "time_base": "1/1000",
      "start_pts": 0,
      "start_time": "0.000000",
      "bit_rate": "448000",
      "disposition": {
        "default": 1,
        "dub": 0,
        "original": 0,
        "comment": 0,
        "lyrics": 0,
        "karaoke": 0,
        "forced": 0,
        "hearing_impaired": 0,
        "visual_impaired": 0,
        "clean_effects": 0,
        "attached_pic": 0,
        "timed_thumbnails": 0
      },
      "tags": {
        "language": "hun",
        "title": "DD 5.1 @ 448 kbps",
        "BPS": "448000",
        "BPS-eng": "448000",
        "DURATION": "02:06:13.440000000",
        "DURATION-eng": "02:06:13.440000000",
        "NUMBER_OF_FRAMES": "236670",
        "NUMBER_OF_FRAMES-eng": "236670",
        "NUMBER_OF_BYTES": "424112640",
        "NUMBER_OF_BYTES-eng": "424112640",
        "_STATISTICS_WRITING_APP": "mkvmerge v13.0.0 ('The Juggler') 64bit",
        "_STATISTICS_WRITING_APP-eng": "mkvmerge v13.0.0 ('The Juggler') 64bit",
        "_STATISTICS_WRITING_DATE_UTC": "2017-11-29 19:49:33",
        "_STATISTICS_WRITING_DATE_UTC-eng": "2017-11-29 19:49:33",
        "_STATISTICS_TAGS": "BPS DURATION NUMBER_OF_FRAMES NUMBER_OF_BYTES",
        "_STATISTICS_TAGS-eng": "BPS DURATION NUMBER_OF_FRAMES NUMBER_OF_BYTES"
      }
    },
    {
      "index": 2,
      "codec_name": "ac3",
      "codec_long_name": "ATSC A/52A (AC-3)",
      "codec_type": "audio",
      "codec_time_base": "1/48000",
      "codec_tag_string": "[0][0][0][0]",
      "codec_tag": "0x0000",
      "sample_fmt": "fltp",
      "sample_rate": "48000",
      "channels": 6,
      "channel_layout": "5.1(side)",
      "bits_per_sample": 0,
      "dmix_mode": "-1",
      "ltrt_cmixlev": "-1.000000",
      "ltrt_surmixlev": "-1.000000",
      "loro_cmixlev": "-1.000000",
      "loro_surmixlev": "-1.000000",
      "r_frame_rate": "0/0",
      "avg_frame_rate": "0/0",
      "time_base": "1/1000",
      "start_pts": 0,
      "start_time": "0.000000",
      "bit_rate": "448000",
      "disposition": {
        "default": 0,
        "dub": 0,
        "original": 0,
        "comment": 0,
        "lyrics": 0,
        "karaoke": 0,
        "forced": 0,
        "hearing_impaired": 0,
        "visual_impaired": 0,
        "clean_effects": 0,
        "attached_pic": 0,
        "timed_thumbnails": 0
      },
      "tags": {
        "language": "eng",
        "title": "AC3 5.1-EX",
        "BPS": "448000",
        "BPS-eng": "448000",
        "DURATION": "02:06:12.544000000",
        "DURATION-eng": "02:06:12.544000000",
        "NUMBER_OF_FRAMES": "236642",
        "NUMBER_OF_FRAMES-eng": "236642",
        "NUMBER_OF_BYTES": "424062464",
        "NUMBER_OF_BYTES-eng": "424062464",
        "_STATISTICS_WRITING_APP": "mkvmerge v13.0.0 ('The Juggler') 64bit",
        "_STATISTICS_WRITING_APP-eng": "mkvmerge v13.0.0 ('The Juggler') 64bit",
        "_STATISTICS_WRITING_DATE_UTC": "2017-11-29 19:49:33",
        "_STATISTICS_WRITING_DATE_UTC-eng": "2017-11-29 19:49:33",
        "_STATISTICS_TAGS": "BPS DURATION NUMBER_OF_FRAMES NUMBER_OF_BYTES",
        "_STATISTICS_TAGS-eng": "BPS DURATION NUMBER_OF_FRAMES NUMBER_OF_BYTES"
      }
    },
    {
      "index": 3,
      "codec_name": "truehd",
      "codec_long_name": "TrueHD",
      "codec_type": "audio",
      "codec_time_base": "1/48000",
      "codec_tag_string": "[0][0][0][0]",
      "codec_tag": "0x0000",
      "sample_fmt": "s32",
      "sample_rate": "48000",
      "channels": 8,
      "channel_layout": "7.1",
      "bits_per_sample": 0,
      "r_frame_rate": "0/0",
      "avg_frame_rate": "0/0",
      "time_base": "1/1000",
      "start_pts": 0,
      "start_time": "0.000000",
      "bits_per_raw_sample": "24",
      "disposition": {
        "default": 0,
        "dub": 0,
        "original": 0,
        "comment": 0,
        "lyrics": 0,
        "karaoke": 0,
        "forced": 0,
        "hearing_impaired": 0,
        "visual_impaired": 0,
        "clean_effects": 0,
        "attached_pic": 0,
        "timed_thumbnails": 0
      },
      "tags": {
        "language": "eng",
        "title": "TrueHD Atmos 7.1",
        "BPS": "3748077",
        "BPS-eng": "3748077",
        "DURATION": "02:06:12.524000000",
        "DURATION-eng": "02:06:12.524000000",
        "NUMBER_OF_FRAMES": "9087028",
        "NUMBER_OF_FRAMES-eng": "9087028",
        "NUMBER_OF_BYTES": "3547801278",
        "NUMBER_OF_BYTES-eng": "3547801278",
        "_STATISTICS_WRITING_APP": "mkvmerge v13.0.0 ('The Juggler') 64bit",
        "_STATISTICS_WRITING_APP-eng": "mkvmerge v13.0.0 ('The Juggler') 64bit",
        "_STATISTICS_WRITING_DATE_UTC": "2017-11-29 19:49:33",
        "_STATISTICS_WRITING_DATE_UTC-eng": "2017-11-29 19:49:33",
        "_STATISTICS_TAGS": "BPS DURATION NUMBER_OF_FRAMES NUMBER_OF_BYTES",
        "_STATISTICS_TAGS-eng": "BPS DURATION NUMBER_OF_FRAMES NUMBER_OF_BYTES"
      }
    },
    {
      "index": 4,
      "codec_name": "subrip",
      "codec_long_name": "SubRip subtitle",
      "codec_type": "subtitle",
      "codec_time_base": "0/1",
      "codec_tag_string": "[0][0][0][0]",
      "codec_tag": "0x0000",
      "r_frame_rate": "0/0",
      "avg_frame_rate": "0/0",
      "time_base": "1/1000",
      "start_pts": 0,
      "start_time": "0.000000",
      "duration_ts": 7573440,
      "duration": "7573.440000",
      "disposition": {
        "default": 1,
        "dub": 0,
        "original": 0,
        "comment": 0,
        "lyrics": 0,
        "karaoke": 0,
        "forced": 1,
        "hearing_impaired": 0,
        "visual_impaired": 0,
        "clean_effects": 0,
        "attached_pic": 0,
        "timed_thumbnails": 0
      },
      "tags": {
        "language": "hun",
        "title": "Forced",
        "BPS": "0",
        "BPS-eng": "0",
        "DURATION": "02:04:43.851000000",
        "DURATION-eng": "02:04:43.851000000",
        "NUMBER_OF_FRAMES": "6",
        "NUMBER_OF_FRAMES-eng": "6",
        "NUMBER_OF_BYTES": "248",
        "NUMBER_OF_BYTES-eng": "248",
        "_STATISTICS_WRITING_APP": "mkvmerge v13.0.0 ('The Juggler') 64bit",
        "_STATISTICS_WRITING_APP-eng": "mkvmerge v13.0.0 ('The Juggler') 64bit",
        "_STATISTICS_WRITING_DATE_UTC": "2017-11-29 19:49:33",
        "_STATISTICS_WRITING_DATE_UTC-eng": "2017-11-29 19:49:33",
        "_STATISTICS_TAGS": "BPS DURATION NUMBER_OF_FRAMES NUMBER_OF_BYTES",
        "_STATISTICS_TAGS-eng": "BPS DURATION NUMBER_OF_FRAMES NUMBER_OF_BYTES"
      }
    },
    {
      "index": 5,
      "codec_name": "subrip",
      "codec_long_name": "SubRip subtitle",
      "codec_type": "subtitle",
      "codec_time_base": "0/1",
      "codec_tag_string": "[0][0][0][0]",
      "codec_tag": "0x0000",
      "r_frame_rate": "0/0",
      "avg_frame_rate": "0/0",
      "time_base": "1/1000",
      "start_pts": 0,
      "start_time": "0.000000",
      "duration_ts": 7573440,
      "duration": "7573.440000",
      "disposition": {
        "default": 0,
        "dub": 0,
        "original": 0,
        "comment": 0,
        "lyrics": 0,
        "karaoke": 0,
        "forced": 0,
        "hearing_impaired": 0,
        "visual_impaired": 0,
        "clean_effects": 0,
        "attached_pic": 0,
        "timed_thumbnails": 0
      },
      "tags": {
        "language": "hun",
        "BPS": "40",
        "BPS-eng": "40",
        "DURATION": "02:04:43.851000000",
        "DURATION-eng": "02:04:43.851000000",
        "NUMBER_OF_FRAMES": "1253",
        "NUMBER_OF_FRAMES-eng": "1253",
        "NUMBER_OF_BYTES": "37568",
        "NUMBER_OF_BYTES-eng": "37568",
        "_STATISTICS_WRITING_APP": "mkvmerge v13.0.0 ('The Juggler') 64bit",
        "_STATISTICS_WRITING_APP-eng": "mkvmerge v13.0.0 ('The Juggler') 64bit",
        "_STATISTICS_WRITING_DATE_UTC": "2017-11-29 19:49:33",
        "_STATISTICS_WRITING_DATE_UTC-eng": "2017-11-29 19:49:33",
        "_STATISTICS_TAGS": "BPS DURATION NUMBER_OF_FRAMES NUMBER_OF_BYTES",
        "_STATISTICS_TAGS-eng": "BPS DURATION NUMBER_OF_FRAMES NUMBER_OF_BYTES"
      }
    },
    {
      "index": 6,
      "codec_name": "hdmv_pgs_subtitle",
      "codec_long_name": "HDMV Presentation Graphic Stream subtitles",
      "codec_type": "subtitle",
      "codec_time_base": "0/1",
      "codec_tag_string": "[0][0][0][0]",
      "codec_tag": "0x0000",
      "r_frame_rate": "0/0",
      "avg_frame_rate": "0/0",
      "time_base": "1/1000",
      "start_pts": 0,
      "start_time": "0.000000",
      "duration_ts": 7573440,
      "duration": "7573.440000",
      "disposition": {
        "default": 0,
        "dub": 0,
        "original": 0,
        "comment": 0,
        "lyrics": 0,
        "karaoke": 0,
        "forced": 0,
        "hearing_impaired": 0,
        "visual_impaired": 0,
        "clean_effects": 0,
        "attached_pic": 0,
        "timed_thumbnails": 0
      },
      "tags": {
        "language": "eng",
        "title": "English (SDH)",
        "BPS": "27501",
        "BPS-eng": "27501",
        "DURATION": "02:04:12.111000000",
        "DURATION-eng": "02:04:12.111000000",
        "NUMBER_OF_FRAMES": "2904",
        "NUMBER_OF_FRAMES-eng": "2904",
        "NUMBER_OF_BYTES": "25618055",
        "NUMBER_OF_BYTES-eng": "25618055",
        "_STATISTICS_WRITING_APP": "mkvmerge v13.0.0 ('The Juggler') 64bit",
        "_STATISTICS_WRITING_APP-eng": "mkvmerge v13.0.0 ('The Juggler') 64bit",
        "_STATISTICS_WRITING_DATE_UTC": "2017-11-29 19:49:33",
        "_STATISTICS_WRITING_DATE_UTC-eng": "2017-11-29 19:49:33",
        "_STATISTICS_TAGS": "BPS DURATION NUMBER_OF_FRAMES NUMBER_OF_BYTES",
        "_STATISTICS_TAGS-eng": "BPS DURATION NUMBER_OF_FRAMES NUMBER_OF_BYTES"
      }
    }
  ],
  "format": {
    "filename": "king.arthur.legend.of.the.sword.2160p.remux-trinity.mkv",
    "nb_streams": 7,
    "nb_programs": 0,
    "format_name": "matroska,webm",
    "format_long_name": "Matroska / WebM",
    "start_time": "0.000000",
    "duration": "7573.440000",
    "size": "51790555027",
    "bit_rate": "54707562",
    "probe_score": 100,
    "tags": {
      "title": "King Arthur: Legend of the Sword 4K",
      "encoder": "libebml v1.3.4 + libmatroska v1.4.5",
      "creation_time": "2017-11-29T19:49:33.000000Z"
    }
  }
}
